<svg width="132" height="46" viewBox="0 0 132 46" fill="none" xmlns="http://www.w3.org/2000/svg">
    <path d="M55.2401 19.2859H58.8727V35.2947H55.2401V19.2859Z" fill="white"/>
    <path d="M65.762 22.3126H61.3528V19.2859H73.8038V22.3126H69.3946V35.2947H65.762V22.3126Z" fill="white"/>
    <path d="M81.2443 19.2859H91.3654V22.3126H84.8768V26.0146H90.4384V29.0413H84.8768V35.2696H81.2443V19.2859Z"
          fill="white"/>
    <path
            d="M94.1211 19.2859H104.167V22.3126H97.7537V25.5393H103.215V28.566H97.7537V32.268H104.418V35.2947H94.1211V19.2859Z"
            fill="white"/>
    <path
            d="M106.572 33.2681L108.651 30.7917C109.804 31.7923 111.282 32.4676 112.585 32.4676C114.088 32.4676 114.839 31.8673 114.839 30.9168C114.839 29.9163 113.937 29.5911 112.534 29.0158L110.455 28.1403C108.802 27.4649 107.223 26.1142 107.223 23.7629C107.223 21.1115 109.603 18.9853 112.935 18.9853C114.789 18.9853 116.718 19.7107 118.096 21.0865L116.267 23.3627C115.215 22.5623 114.213 22.112 112.935 22.112C111.683 22.112 110.881 22.6373 110.881 23.5378C110.881 24.5133 111.933 24.8885 113.336 25.4388L115.39 26.2643C117.344 27.0647 118.572 28.3654 118.572 30.6166C118.572 33.2681 116.342 35.5693 112.534 35.5693C110.43 35.5943 108.225 34.7939 106.572 33.2681Z"
            fill="white"/>
    <path d="M123.958 22.3126H119.549V19.2859H132V22.3126H127.591V35.2947H123.958V22.3126Z" fill="white"/>
    <path d="M38.5303 12.1816V35.2942H26.9562V23.7379H15.3821V12.1816H38.5303Z" fill="white"/>
    <path d="M13.8789 25.864H5.76202V33.9684H13.8789V25.864Z" fill="white"/>
    <path d="M24.977 36.9451H16.8601V45.0495H24.977V36.9451Z" fill="white"/>
    <path d="M11.8998 39.0212H4.91022V46H11.8998V39.0212Z" fill="white"/>
    <path
            d="M30.0877 5.75313C31.6788 5.75313 32.9687 4.46525 32.9687 2.87656C32.9687 1.28788 31.6788 0 30.0877 0C28.4965 0 27.2067 1.28788 27.2067 2.87656C27.2067 4.46525 28.4965 5.75313 30.0877 5.75313Z"
            fill="white"/>
    <path
            d="M7.51568 18.9603C8.78858 18.9603 9.82048 17.93 9.82048 16.6591C9.82048 15.3881 8.78858 14.3578 7.51568 14.3578C6.24277 14.3578 5.21088 15.3881 5.21088 16.6591C5.21088 17.93 6.24277 18.9603 7.51568 18.9603Z"
            fill="white"/>
    <path
            d="M17.4614 8.22947C18.1393 8.22947 18.6889 7.68072 18.6889 7.0038C18.6889 6.32689 18.1393 5.77814 17.4614 5.77814C16.7834 5.77814 16.2338 6.32689 16.2338 7.0038C16.2338 7.68072 16.7834 8.22947 17.4614 8.22947Z"
            fill="white"/>
    <path
            d="M42.8643 27.2398C43.4869 27.2398 43.9916 26.7359 43.9916 26.1142C43.9916 25.4926 43.4869 24.9886 42.8643 24.9886C42.2417 24.9886 41.7369 25.4926 41.7369 26.1142C41.7369 26.7359 42.2417 27.2398 42.8643 27.2398Z"
            fill="white"/>
    <path
            d="M1.30271 36.5949C2.02218 36.5949 2.60543 36.0126 2.60543 35.2942C2.60543 34.5758 2.02218 33.9935 1.30271 33.9935C0.583245 33.9935 0 34.5758 0 35.2942C0 36.0126 0.583245 36.5949 1.30271 36.5949Z"
            fill="white"/>
    <path
            d="M30.8893 42.173C31.8025 42.173 32.5428 41.4338 32.5428 40.5221C32.5428 39.6103 31.8025 38.8712 30.8893 38.8712C29.9762 38.8712 29.2359 39.6103 29.2359 40.5221C29.2359 41.4338 29.9762 42.173 30.8893 42.173Z"
            fill="white"/>
</svg>